<?xml version="1.0" standalone="no"?>
<!DOCTYPE svg PUBLIC "-//W3C//DTD SVG 20010904//EN"
 "http://www.w3.org/TR/2001/REC-SVG-20010904/DTD/svg10.dtd">
<svg version="1.0" xmlns="http://www.w3.org/2000/svg"
 width="919.000000pt" height="612.000000pt" viewBox="0 0 919.000000 612.000000"
 preserveAspectRatio="xMidYMid meet">

<g transform="translate(0.000000,612.000000) scale(0.100000,-0.100000)"
fill="#ff0000" stroke="none">
<path d="M0 3060 l0 -3060 4595 0 4595 0 0 3060 0 3060 -4595 0 -4595 0 0
-3060z m5100 2662 c30 -12 78 -39 105 -60 69 -51 163 -194 210 -318 20 -55 62
-162 93 -239 30 -77 61 -162 68 -190 6 -27 28 -106 47 -175 20 -69 39 -145 42
-170 6 -48 6 -48 -55 165 -21 77 -55 155 -66 155 -2 0 0 -9 6 -19 5 -11 10
-25 10 -31 0 -6 -27 28 -60 77 -92 135 -256 331 -354 423 -126 119 -332 254
-432 285 -68 21 -176 19 -268 -5 -100 -25 -248 -97 -331 -160 -62 -47 -83 -57
-130 -64 -31 -4 -28 -21 7 -39 l33 -18 -40 6 c-22 4 -51 8 -63 10 -32 5 -41
15 -12 15 14 0 46 22 84 58 128 118 318 235 463 283 90 29 177 37 398 35 170
-2 196 -4 245 -24z m-618 -331 c24 -10 53 -28 66 -40 24 -24 29 -37 10 -25 -9
5 -8 2 1 -10 13 -15 12 -18 -7 -22 -14 -4 -19 -11 -15 -22 7 -17 5 -16 -64 30
-22 16 -48 26 -56 22 -10 -3 -18 2 -22 15 -3 12 -10 21 -15 21 -11 0 -21 30
-14 41 9 15 70 10 116 -10z m-450 -87 c21 -3 42 -12 48 -19 8 -9 -10 -8 -61 6
-73 19 -109 36 -54 26 17 -4 47 -9 67 -13z m265 1 c20 -8 34 -18 31 -20 -5 -6
-78 22 -78 30 0 8 8 6 47 -10z m313 -6 c0 -5 5 -7 12 -3 7 4 8 3 4 -4 -4 -6
-13 -9 -21 -5 -17 6 -20 23 -5 23 6 0 10 -5 10 -11z m-114 -81 l29 -32 -27 17
c-16 10 -28 13 -28 7 0 -6 -4 -9 -9 -6 -7 5 -4 46 3 46 1 0 15 -14 32 -32z
m-809 -4 c-3 -3 -12 -4 -19 -1 -8 3 -5 6 6 6 11 1 17 -2 13 -5z m134 -17 c-10
-9 -11 -8 -5 6 3 10 9 15 12 12 3 -3 0 -11 -7 -18z m282 -68 c32 -12 55 -24
53 -27 -7 -6 -236 71 -236 80 0 7 95 -20 183 -53z m-310 -31 c32 -16 79 -44
105 -62 26 -18 82 -53 125 -77 43 -24 73 -45 67 -47 -13 -5 -162 80 -193 109
-12 11 -63 40 -114 65 -90 44 -118 63 -70 48 12 -3 48 -20 80 -36z m516 -50
c10 -18 11 -20 0 -10 -7 6 -24 12 -38 13 -24 0 -24 1 -6 9 29 12 29 12 44 -12z
m-709 -78 c25 -33 27 -39 9 -23 -13 12 -33 37 -43 55 -22 39 -12 29 34 -32z
m27 -272 c-3 -8 -6 -5 -6 6 -1 11 2 17 5 13 3 -3 4 -12 1 -19z m1600 -108 c13
-35 4 -252 -11 -267 -2 -2 -29 9 -61 23 -53 25 -74 28 -248 36 -105 5 -196 7
-204 4 -8 -4 -13 -23 -13 -59 0 -31 -6 -61 -15 -73 -8 -10 -15 -25 -15 -32 0
-7 -12 -30 -26 -51 -14 -22 -27 -47 -28 -56 -1 -9 -9 -21 -17 -26 -8 -5 -9 -9
-4 -9 6 0 4 -4 -4 -9 -11 -7 -9 -15 13 -43 14 -19 26 -39 26 -44 0 -12 53 -44
73 -44 9 0 33 -10 54 -22 36 -21 37 -21 21 -2 -27 31 -23 92 9 142 36 56 49
59 45 11 -11 -109 133 -178 222 -108 57 45 66 103 25 148 -24 25 -8 27 31 4
31 -18 45 -43 55 -97 10 -51 -29 -87 -126 -118 -49 -15 -66 -24 -51 -26 35 -5
116 26 166 64 25 19 51 34 59 34 57 0 57 -143 0 -258 -49 -101 -182 -156 -280
-117 -23 9 -54 15 -70 13 -24 -3 -28 -7 -28 -33 0 -27 -7 -33 -74 -67 -67 -34
-81 -38 -153 -38 -154 0 -302 61 -304 125 0 17 -1 35 -2 41 -3 18 -72 24 -137
13 -80 -15 -133 -1 -180 49 -48 50 -56 86 -41 177 13 83 30 90 131 54 73 -26
165 -37 165 -20 0 6 -14 11 -30 11 -50 0 -102 26 -161 82 -10 9 -21 33 -25 53
-5 31 -3 38 22 57 15 12 35 23 43 25 9 1 23 11 33 22 22 28 33 27 14 -1 -24
-34 -21 -109 6 -143 47 -60 129 -71 201 -25 l47 30 0 -24 c0 -16 -12 -34 -32
-51 l-33 -26 29 7 c23 5 32 2 46 -16 12 -16 23 -21 39 -15 23 7 61 72 61 104
0 11 5 21 12 23 11 4 19 88 7 88 -4 0 -29 35 -57 78 -28 42 -60 86 -71 96 -30
27 -28 77 4 104 14 12 25 19 25 16 0 -4 6 -2 13 3 6 6 25 13 42 17 16 4 91 34
165 65 74 32 160 66 190 76 30 10 72 26 94 37 32 17 51 19 120 14 58 -4 90 -2
111 7 38 17 67 6 82 -33z m-1640 -72 c-3 -8 -6 -5 -6 6 -1 11 2 17 5 13 3 -3
4 -12 1 -19z m-10 -60 c-3 -7 -5 -2 -5 12 0 14 2 19 5 13 2 -7 2 -19 0 -25z
m2110 -15 c-3 -10 -5 -4 -5 12 0 17 2 24 5 18 2 -7 2 -21 0 -30z m-1789 -78
c-6 -14 -13 -23 -15 -21 -5 5 15 46 22 46 3 0 -1 -11 -7 -25z m-341 -27 c-3
-8 -6 -5 -6 6 -1 11 2 17 5 13 3 -3 4 -12 1 -19z m2150 -45 c-3 -10 -5 -4 -5
12 0 17 2 24 5 18 2 -7 2 -21 0 -30z m10 -125 c-2 -13 -4 -5 -4 17 -1 22 1 32
4 23 2 -10 2 -28 0 -40z m-1377 -73 c10 -12 9 -16 -5 -21 -17 -7 -38 13 -29
28 8 12 20 10 34 -7z m730 -14 c0 -22 -23 -34 -38 -19 -15 15 -3 38 19 38 12
0 19 -7 19 -19z m-1523 -28 c-3 -10 -5 -4 -5 12 0 17 2 24 5 18 2 -7 2 -21 0
-30z m693 -46 c19 -1 51 2 70 7 l35 7 -30 -20 c-53 -37 -138 -22 -168 28 -24
40 -1 46 32 9 18 -21 36 -30 61 -31z m645 6 c21 -25 30 -28 89 -28 36 0 66 -1
66 -2 0 -1 -13 -9 -30 -18 -66 -34 -159 -1 -160 58 0 24 7 22 35 -10z m-1317
-43 c0 -9 -3 -7 -8 5 -5 11 -8 29 -8 40 0 16 2 15 8 -5 4 -14 8 -32 8 -40z
m2119 23 c-3 -10 -5 -4 -5 12 0 17 2 24 5 18 2 -7 2 -21 0 -30z m-43 -132 c-9
-23 -18 -40 -20 -38 -2 2 4 22 13 45 9 23 18 40 20 38 2 -2 -4 -22 -13 -45z
m-1389 -301 c11 -12 13 -20 6 -20 -7 0 -9 -9 -5 -24 5 -22 3 -24 -27 -23 -42
2 -79 47 -59 72 18 21 63 19 85 -5z m668 -68 c-15 -38 -65 -61 -100 -47 -37
15 -89 10 -136 -12 -76 -38 -148 -47 -210 -29 -29 9 -63 25 -77 37 l-25 20 31
-15 c56 -27 117 -36 178 -26 65 10 178 59 234 101 l36 27 38 -19 c28 -14 36
-23 31 -37z m-1183 -7 c0 -6 -175 -90 -208 -100 -30 -9 -45 -47 -32 -81 6 -14
10 -37 9 -52 -1 -25 -2 -24 -9 6 -11 46 -20 52 -20 13 0 -41 -14 -68 -56 -108
-19 -18 -34 -36 -34 -40 0 -23 -57 -122 -69 -120 -10 1 -31 -36 -63 -107 -43
-99 -60 -125 -79 -126 -15 0 -17 45 -3 88 7 26 14 50 14 55 0 18 -25 3 -77
-45 -76 -73 -102 -121 -110 -204 -4 -39 -13 -75 -22 -86 -9 -10 -18 -33 -21
-51 l-5 -32 -61 3 c-74 3 -120 -15 -162 -63 -58 -65 -52 -118 18 -168 40 -28
44 -47 12 -47 -12 0 -13 -3 -5 -8 9 -5 -4 -14 -37 -26 -30 -11 -63 -33 -85
-57 -34 -38 -35 -42 -36 -122 l-1 -82 -10 60 c-12 77 -5 117 33 201 17 38 35
95 40 128 13 81 40 127 99 174 27 22 86 85 129 141 43 55 94 115 112 134 19
18 53 55 75 83 23 27 64 65 93 84 41 28 59 50 93 115 56 107 118 203 159 244
19 18 43 47 54 63 26 38 265 158 265 133z m2043 -240 c42 -66 94 -153 115
-194 29 -60 49 -84 102 -126 36 -28 83 -74 105 -101 21 -27 57 -67 80 -89 22
-22 67 -72 100 -112 33 -39 71 -76 85 -82 40 -18 131 -162 145 -231 4 -19 25
-71 48 -115 36 -71 41 -87 40 -150 0 -38 -5 -81 -10 -95 -8 -19 -10 -10 -6 42
9 107 -18 147 -125 189 -29 11 -39 19 -27 19 13 1 8 5 -13 11 l-33 10 40 39
c35 34 41 46 41 81 0 46 -20 85 -57 113 -19 14 -46 19 -109 22 -46 1 -89 6
-94 9 -16 10 -12 23 10 30 16 5 20 15 20 46 0 43 -11 50 -34 18 -21 -31 -33
-17 -40 53 -10 83 -26 127 -69 185 -34 47 -127 124 -127 105 0 -4 7 -29 16
-55 18 -54 16 -102 -6 -102 -10 0 -29 36 -55 107 -37 99 -65 151 -65 120 0 -7
-4 -12 -10 -12 -5 0 -10 5 -10 10 0 6 -11 28 -25 50 -21 34 -24 44 -14 63 9
18 9 20 -2 10 -10 -10 -20 -5 -48 26 -80 85 -81 87 -81 185 0 105 -13 114 113
-79z m-885 -379 c-6 -48 -53 -156 -68 -156 -6 0 -10 4 -10 10 0 8 28 84 61
168 14 36 22 26 17 -22z m-525 -53 c31 -72 36 -92 27 -98 -11 -7 -45 58 -53
103 -9 43 5 41 26 -5z m337 -86 c0 5 9 9 20 10 25 2 27 -31 6 -82 l-15 -35
371 0 c348 0 370 1 363 18 -4 9 -9 33 -12 52 l-5 35 26 -44 c14 -23 26 -47 26
-52 0 -5 127 -9 294 -9 186 0 297 -4 301 -10 4 -7 -495 -10 -1490 -10 -995 0
-1494 3 -1490 10 4 6 112 10 290 10 l285 0 15 36 c8 20 15 45 15 55 0 11 5 19
11 19 12 0 8 -58 -6 -92 -7 -17 15 -18 379 -18 302 0 386 3 387 13 1 6 0 26
-1 44 -2 35 -9 33 93 18 36 -6 47 -5 47 5 0 7 3 10 7 7 3 -4 13 -1 21 6 11 8
13 8 9 0 -5 -7 0 -9 14 -6 13 4 18 11 14 21 -4 12 -3 13 10 2 8 -7 15 -8 15
-3z m1437 -179 c-3 -7 -5 -2 -5 12 0 14 2 19 5 13 2 -7 2 -19 0 -25z m-3040
-650 c-3 -8 -6 -5 -6 6 -1 11 2 17 5 13 3 -3 4 -12 1 -19z m-67 -128 c0 -19
-5 -30 -14 -30 -20 0 -29 16 -21 40 10 32 35 25 35 -10z m-319 -76 c-5 -21
-16 -57 -25 -79 -23 -61 -21 -137 6 -170 l21 -27 19 23 19 24 -4 -32 c-3 -32
5 -43 18 -23 3 5 16 15 28 21 12 7 1 -7 -24 -29 -53 -47 -83 -109 -75 -156 l6
-31 -12 29 c-9 24 -7 40 7 82 17 52 17 53 -4 80 -23 30 -51 113 -51 154 0 44
29 141 53 174 26 36 33 21 18 -40z m3778 26 c25 -13 48 -75 50 -136 2 -55 -30
-167 -55 -195 -12 -14 -12 -22 7 -63 25 -58 20 -90 -25 -142 l-33 -39 18 -43
c28 -64 23 -63 -16 3 -20 32 -33 65 -30 73 4 11 9 12 17 4 17 -17 37 -3 59 41
20 38 20 42 4 82 -8 23 -35 62 -58 85 -33 33 -36 39 -13 24 l28 -18 -7 34 -7
33 28 -22 c15 -12 31 -18 35 -14 4 4 12 33 18 63 10 53 9 58 -23 123 -19 37
-30 64 -24 61 7 -4 8 5 3 25 -7 33 -4 36 24 21z m-3724 -537 c24 4 26 2 20
-20 -6 -27 -56 -106 -62 -99 -2 2 4 20 13 40 17 35 17 37 -3 58 -31 35 -40 57
-15 34 14 -12 30 -17 47 -13z m392 -95 c6 -7 14 -57 17 -110 l7 -98 -26 10
c-42 16 -93 12 -114 -9 -10 -10 -26 -23 -34 -27 -8 -5 -37 -30 -64 -55 -39
-37 -53 -45 -77 -42 -54 7 -58 15 -30 57 14 21 30 51 34 66 8 28 7 28 -17 19
-32 -12 -69 -38 -158 -109 -85 -69 -100 -77 -145 -80 -60 -3 -62 -3 -49 23
l11 22 -21 -22 c-16 -17 -28 -21 -50 -17 -16 3 -39 1 -52 -5 -14 -7 -5 5 21
29 48 44 177 124 248 155 23 10 47 24 53 31 6 7 23 16 39 19 16 4 41 21 56 38
15 18 38 33 52 34 13 1 32 9 41 17 50 46 234 84 258 54z m3079 -34 c40 -19 77
-34 83 -34 7 0 27 -16 47 -35 36 -36 87 -48 98 -22 3 6 4 3 3 -7 -1 -15 30
-40 134 -105 75 -47 152 -98 170 -113 l34 -27 -45 4 c-25 2 -52 5 -60 7 -8 1
-14 -3 -12 -9 3 -19 -63 -16 -100 3 -33 17 -122 88 -193 153 -83 77 -104 60
-40 -33 25 -37 45 -68 45 -70 0 -9 -57 -13 -78 -5 -13 5 -59 40 -101 78 -101
90 -109 94 -161 76 l-41 -15 7 93 c3 50 9 96 11 100 11 18 129 -5 199 -39z
m-3519 -26 c-3 -8 -6 -5 -6 6 -1 11 2 17 5 13 3 -3 4 -12 1 -19z m473 -246 l0
-48 -45 -12 c-33 -9 -52 -9 -72 -1 -26 10 -27 12 -9 23 10 6 41 27 70 48 28
20 52 37 54 37 1 1 2 -21 2 -47z m2835 -12 c-2 -27 -6 -54 -10 -60 -4 -6 10
-10 37 -10 24 0 101 -3 171 -7 107 -5 127 -4 122 8 -4 11 8 14 59 14 35 0 62
-3 60 -7 -9 -14 16 -17 211 -28 109 -6 205 -15 214 -21 12 -7 9 -9 -14 -5 -16
3 -95 7 -175 10 -274 11 -505 18 -600 21 l-95 2 -2 54 c-2 60 2 79 16 79 6 0
8 -22 6 -50z m-3157 -57 c-3 -16 11 -18 165 -21 130 -2 167 -5 167 -16 0 -10
-55 -14 -262 -19 -145 -4 -353 -9 -463 -12 -235 -6 -229 9 10 25 194 13 245
19 242 32 -1 7 23 10 66 9 42 -2 67 2 67 8 0 6 2 11 5 11 3 0 5 -8 3 -17z"/>
<path d="M4943 5689 c-14 -14 -64 -19 -85 -7 -10 5 -18 7 -18 4 0 -11 112 -66
122 -60 6 4 8 3 5 -3 -3 -5 17 -27 46 -49 114 -85 355 -338 416 -437 18 -30
26 -36 33 -25 8 10 9 9 5 -4 -4 -9 13 -50 38 -93 64 -114 68 -111 15 10 -43
100 -53 117 -60 104 -5 -7 -14 1 -25 24 -9 20 -13 41 -9 48 5 9 2 10 -10 6
-12 -5 -16 -3 -13 5 2 7 0 23 -4 35 -4 12 -9 40 -10 62 -2 22 -7 37 -12 34
-14 -8 -27 19 -21 41 5 14 2 18 -9 13 -19 -7 -30 51 -14 73 9 12 9 13 -3 3
-22 -20 -29 -15 -24 15 3 17 1 22 -4 14 -7 -10 -12 -10 -22 3 -12 14 -11 18 1
26 10 8 7 8 -11 3 -23 -6 -24 -6 -10 11 14 17 13 18 -2 12 -13 -4 -15 -2 -11
10 4 10 2 14 -5 9 -6 -3 -15 0 -19 9 -5 8 -26 24 -48 35 -22 12 -31 18 -20 15
12 -4 16 -3 10 3 -23 20 -172 54 -181 41 -2 -4 -11 -6 -19 -3 -8 4 -12 10 -9
15 7 12 0 11 -13 -2z m437 -379 c0 -5 -2 -10 -4 -10 -3 0 -8 5 -11 10 -3 6 -1
10 4 10 6 0 11 -4 11 -10z"/>
<path d="M4248 3903 c7 -3 16 -2 19 1 4 3 -2 6 -13 5 -11 0 -14 -3 -6 -6z"/>
<path d="M4378 3659 c-3 -8 4 -40 15 -72 22 -65 59 -97 112 -97 43 0 130 53
160 97 32 49 34 69 3 49 -17 -11 -49 -14 -123 -12 -94 2 -140 14 -156 39 -4 5
-9 3 -11 -4z"/>
<path d="M2875 2560 c-7 -12 2 -30 16 -30 12 0 12 27 0 35 -5 3 -12 1 -16 -5z"/>
</g>
</svg>
